<?xml version="1.0" encoding="UTF-8"?>
<svg version="1.1" xmlns="http://www.w3.org/2000/svg" width="473" height="205">
<path d="M0 0 C2.6932571 0.08944396 4.46848637 0.51937227 6.48925781 2.34667969 C8.09155813 4.14888113 9.6181026 5.99231772 11.125 7.875 C12.16837337 9.14396761 13.21261587 10.41222121 14.2578125 11.6796875 C14.7130127 12.24413574 15.16821289 12.80858398 15.63720703 13.39013672 C16.08692871 13.9213916 16.53665039 14.45264648 17 15 C17.62878052 15.83615845 17.62878052 15.83615845 18.27026367 16.68920898 C20.91317267 18.69200058 23.14693846 18.33737188 26.41796875 18.29296875 C27.67158203 18.28330078 28.92519531 18.27363281 30.21679688 18.26367188 C31.52712891 18.23853516 32.83746094 18.21339844 34.1875 18.1875 C35.52277163 18.17244967 36.85805937 18.15876187 38.19335938 18.14648438 C41.46264576 18.11107694 44.73112093 18.0616889 48 18 C47.91733887 18.76554199 47.83467773 19.53108398 47.74951172 20.31982422 C45.43853477 35.01213085 45.43853477 35.01213085 48.87890625 48.7734375 C51.44666611 51.25887223 53.96459384 53.1235671 57 55 C58.56515269 56.26310568 60.10952532 57.55270073 61.625 58.875 C62.27726563 59.38804688 62.92953125 59.90109375 63.6015625 60.4296875 C65 62 65 62 65 66 C63.1722968 67.98444797 61.40789184 69.69055866 59.375 71.4375 C58.59189453 72.13456055 58.59189453 72.13456055 57.79296875 72.84570312 C57.00986328 73.53889648 57.00986328 73.53889648 56.2109375 74.24609375 C55.6854834 74.71813232 55.1600293 75.1901709 54.61865234 75.67651367 C53 77 53 77 49.625 78.953125 C47.27860161 80.89766895 47.0091119 81.94155799 46.52978516 85.01586914 C46.40808029 88.79924724 46.47800314 92.53015769 46.625 96.3125 C46.65207031 97.62541016 46.67914063 98.93832031 46.70703125 100.29101562 C46.7776784 103.52900979 46.87629434 106.76366958 47 110 C46.21874756 109.93304932 45.43749512 109.86609863 44.63256836 109.79711914 C41.06941052 109.5136411 37.50480012 109.28762977 33.9375 109.0625 C32.70837891 108.95615234 31.47925781 108.84980469 30.21289062 108.74023438 C23.67480698 108.22310037 23.67480698 108.22310037 17.69873047 110.41088867 C15.92144774 112.17658762 14.4559226 113.96497704 13 116 C12.30390625 116.75667969 11.6078125 117.51335937 10.890625 118.29296875 C10.34921875 118.91816406 9.8078125 119.54335937 9.25 120.1875 C8.69828125 120.82042969 8.1465625 121.45335938 7.578125 122.10546875 C5.98100384 124.0228048 4.47913651 125.99069107 3 128 C3.64066406 128.70125 4.28132812 129.4025 4.94140625 130.125 C7.19573171 132.59770274 9.44598296 135.07390823 11.69140625 137.5546875 C12.85514733 138.84001347 14.02116294 140.12327923 15.1875 141.40625 C15.80625 142.0971875 16.425 142.788125 17.0625 143.5 C17.61035156 144.1084375 18.15820312 144.716875 18.72265625 145.34375 C20 147 20 147 21 150 C21.94875 149.95875 22.8975 149.9175 23.875 149.875 C27 150 27 150 29 152 C29.14497985 154.58064129 29.18677545 157.04943884 29.125 159.625 C29.11597656 160.33140625 29.10695312 161.0378125 29.09765625 161.765625 C29.07407603 163.51056098 29.03820461 165.25532295 29 167 C29.99 166.67 30.98 166.34 32 166 C32.185625 165.030625 32.37125 164.06125 32.5625 163.0625 C34.00373264 157.09877875 39.23693552 152.54909002 44 149 C46.69921875 148.58984375 46.69921875 148.58984375 49 149 C51 151 51 151 51.1953125 154.4765625 C51.18201493 155.85950968 51.15816232 157.24238654 51.125 158.625 C51.11597656 159.33140625 51.10695313 160.0378125 51.09765625 160.765625 C51.07407603 162.51056098 51.03820461 164.25532295 51 166 C52.68838564 164.62608764 54.37565901 163.25080839 56.0625 161.875 C57.07570313 161.05902344 58.08890625 160.24304688 59.1328125 159.40234375 C61.40501544 157.49852248 63.38877049 155.56267464 65.4375 153.4375 C69.24776906 150.16762967 73.19871734 150.15448635 78.06640625 150.421875 C85.54925115 151.89652353 89.76545244 157.49136064 93.96875 163.4609375 C94.3090625 163.96882812 94.649375 164.47671875 95 165 C96.06105179 161.01377064 96.06105179 161.01377064 96 157 C94.36988333 154.90901265 92.6455522 153.3779991 90.56640625 151.73828125 C89 150 89 150 88.54296875 147.55859375 C89.133732 144.25132941 90.33882736 143.05557384 92.75 140.75 C93.79414062 139.72132813 93.79414062 139.72132813 94.859375 138.671875 C97.06085717 136.95246922 98.20817481 136.08211251 101 136 C103.0703125 137.36328125 103.0703125 137.36328125 105.125 139.3125 C105.80820312 139.94800781 106.49140625 140.58351562 107.1953125 141.23828125 C108.47150175 142.48408504 109.73891196 143.73891196 111 145 C111 146.32 111 147.64 111 149 C111.99 149.33 112.98 149.66 114 150 C114.33 153.63 114.66 157.26 115 161 C116.0725 159.7625 117.145 158.525 118.25 157.25 C118.89324219 156.52296875 119.53648437 155.7959375 120.19921875 155.046875 C121.51290281 153.55366362 122.79684229 152.03413056 124.0625 150.5 C126 149 126 149 129.125 148.625 C132 149 132 149 134 151 C134.30599063 153.56916657 134.51087087 156.04758384 134.625 158.625 C134.66367187 159.33140625 134.70234375 160.0378125 134.7421875 160.765625 C134.83647724 162.50998524 134.91932891 164.25495691 135 166 C141.08581669 167.06744514 147.02246104 167.13439322 153.19140625 167.140625 C155.3743595 167.1589404 157.55730252 167.17850951 159.74023438 167.19921875 C163.15927643 167.2282458 166.57765256 167.25000215 169.99682617 167.25048828 C173.31227794 167.25382159 176.62621731 167.28834443 179.94140625 167.328125 C180.96029434 167.3210553 181.97918243 167.3139856 183.02894592 167.30670166 C187.6031808 167.385084 190.95191468 167.44632908 194.60131836 170.39355469 C197.02956576 173.03212662 198.25261031 174.51218145 199 178 C198.45454545 184.54545455 198.45454545 184.54545455 197 186 C195.03630847 186.0940067 193.06920801 186.11743381 191.10327148 186.11352539 C189.84203964 186.11344986 188.5808078 186.11337433 187.28135681 186.11329651 C185.89460206 186.1081891 184.50784771 186.10297309 183.12109375 186.09765625 C181.71004791 186.09579201 180.29900143 186.09436814 178.88795471 186.09336853 C175.16759465 186.08954379 171.4472734 186.0797139 167.72692871 186.06866455 C163.93319219 186.05844948 160.13944942 186.05387071 156.34570312 186.04882812 C148.89711769 186.03809158 141.44856428 186.0210157 134 186 C133.57847656 187.64742188 133.57847656 187.64742188 133.1484375 189.328125 C131.43682175 194.80063796 127.68430291 197.8771314 123 201 C119.09254453 202.30248516 115.35571302 202.1822166 111.28125 202.203125 C110.42696411 202.20882507 109.57267822 202.21452515 108.69250488 202.22039795 C106.88697547 202.22983911 105.08142889 202.23637842 103.27587891 202.24023438 C100.51043894 202.24996328 97.74573504 202.28100382 94.98046875 202.3125 C93.22656692 202.31902797 91.47265977 202.32427925 89.71875 202.328125 C88.47647644 202.3466452 88.47647644 202.3466452 87.20910645 202.36553955 C81.45688459 202.34314625 81.45688459 202.34314625 79.23840332 200.67694092 C78 199 78 199 78.3125 195.8125 C78.6528125 194.4203125 78.6528125 194.4203125 79 193 C78.28714844 192.84144531 77.57429688 192.68289062 76.83984375 192.51953125 C68.06373094 190.38160875 68.06373094 190.38160875 64.25 187.1875 C61.09055063 184.51571639 61.09055063 184.51571639 57.0625 185.6875 C56.051875 186.120625 55.04125 186.55375 54 187 C54.495 187.350625 54.99 187.70125 55.5 188.0625 C57 190 57 190 57.625 193.25 C56.86070178 197.83578934 55.38807504 199.62199875 52.0078125 202.6875 C48.95081428 204.68584903 46.54105182 204.46768609 43 204 C39.10404924 203.91270775 39.10404924 203.91270775 35.6875 204.4375 C30.46042418 203.81733846 28.20068163 200.9963313 25 197 C24.67 196.34 24.34 195.68 24 195 C23.44570312 195.42152344 22.89140625 195.84304687 22.3203125 196.27734375 C21.59585938 196.82519531 20.87140625 197.37304688 20.125 197.9375 C19.40570313 198.48277344 18.68640625 199.02804688 17.9453125 199.58984375 C12.84022472 203.29051983 6.84474641 202.2651315 0.75 202.3125 C-0.47847656 202.34150391 -1.70695313 202.37050781 -2.97265625 202.40039062 C-11.01347623 202.45701612 -14.78590445 201.99929942 -20.609375 196.47265625 C-23.07562285 193.42363065 -24.64059247 190.65186296 -26 187 C-30.74971531 186.75753921 -35.49959263 186.5427076 -40.25170898 186.35302734 C-41.86695373 186.28470688 -43.48190181 186.2089394 -45.09643555 186.12548828 C-47.42197693 186.00659704 -49.74728187 185.91482854 -52.07421875 185.828125 C-53.15107185 185.76434662 -53.15107185 185.76434662 -54.24967957 185.69927979 C-57.91859244 185.58968137 -59.75906433 185.8356453 -62.82739258 187.92871094 C-63.90283325 188.95399902 -63.90283325 188.95399902 -65 190 C-70.28760163 192.58231708 -75.37392874 192.3032661 -81 191 C-84.3125 189 -84.3125 189 -87 187 C-90.79681492 185.96272582 -94.39122545 185.89440907 -98.3125 185.9375 C-99.38113281 185.94652344 -100.44976562 185.95554688 -101.55078125 185.96484375 C-102.35902344 185.97644531 -103.16726562 185.98804688 -104 186 C-104.04125 186.845625 -104.0825 187.69125 -104.125 188.5625 C-105.54377231 194.13624838 -108.81775218 197.56177579 -113.56640625 200.69140625 C-118.21374979 202.46257814 -122.32512181 202.36354186 -127.25 202.25 C-128.16007812 202.24484375 -129.07015625 202.2396875 -130.0078125 202.234375 C-136.68987462 202.15506269 -136.68987462 202.15506269 -139 201 C-139.99 201.33 -140.98 201.66 -142 202 C-145.93311853 202.2588352 -149.87177186 202.23140069 -153.8125 202.25 C-155.43381836 202.2809375 -155.43381836 202.2809375 -157.08789062 202.3125 C-163.81772932 202.34555016 -168.6275667 202.04095482 -173.828125 197.3515625 C-174.53195313 196.49691406 -174.53195313 196.49691406 -175.25 195.625 C-175.96929687 194.77808594 -175.96929687 194.77808594 -176.703125 193.9140625 C-181.20964352 187.26287553 -181.35177716 178.99312257 -180.52246094 171.21142578 C-179.3168848 166.10857127 -175.81942726 163.12909931 -172.08984375 159.67578125 C-168.20764023 157.57026253 -166.22151222 158.00163517 -162 159 C-161.34 159 -160.68 159 -160 159 C-159.401875 158.360625 -158.80375 157.72125 -158.1875 157.0625 C-156 155 -156 155 -153.6875 153.875 C-149.35978843 154.07628891 -146.96952216 157.04759324 -144 160 C-143.30132812 159.278125 -142.60265625 158.55625 -141.8828125 157.8125 C-140.51769531 156.4203125 -140.51769531 156.4203125 -139.125 155 C-137.76761719 153.6078125 -137.76761719 153.6078125 -136.3828125 152.1875 C-134 150 -134 150 -132 150 C-131.938125 149.443125 -131.87625 148.88625 -131.8125 148.3125 C-129.94975341 143.01083664 -124.25782282 139.46566974 -120 136 C-115.125 137.875 -115.125 137.875 -114 139 C-113.76572222 141.01594582 -113.58663876 143.038474 -113.4375 145.0625 C-113.35371094 146.16722656 -113.26992187 147.27195313 -113.18359375 148.41015625 C-113.12300781 149.26480469 -113.06242187 150.11945313 -113 151 C-112.34 150.34 -111.68 149.68 -111 149 C-108 148.6875 -108 148.6875 -105 149 C-102.57520264 152.63719605 -102.61337423 154.85703482 -102.375 159.1875 C-102.26285156 161.09595703 -102.26285156 161.09595703 -102.1484375 163.04296875 C-102.09945312 164.01878906 -102.05046875 164.99460938 -102 166 C-97.63530901 165.56866583 -95.3896835 162.65829178 -92.5625 159.625 C-84.90614883 151.46955243 -84.90614883 151.46955243 -79.31640625 150.56640625 C-70.8696953 150.5544251 -67.09106039 152.89090085 -61.125 158.75 C-60.07827361 159.82844537 -59.0347933 160.91009937 -58 162 C-57.34 161.01 -56.68 160.02 -56 159 C-55.1063336 157.81562284 -54.18789137 156.64967329 -53.25 155.5 C-52.78078125 154.9121875 -52.3115625 154.324375 -51.828125 153.71875 C-47.28690294 149.44922498 -42.83982129 148.5861288 -36.75 148.625 C-35.52796875 148.61726562 -34.3059375 148.60953125 -33.046875 148.6015625 C-32.04140625 148.73304688 -31.0359375 148.86453125 -30 149 C-27.70216394 152.44675409 -27.70245117 153.93328112 -27.6875 158 C-27.67074219 159.051875 -27.65398437 160.10375 -27.63671875 161.1875 C-28 164 -28 164 -29.51953125 165.875 C-30.00808594 166.24625 -30.49664062 166.6175 -31 167 C-29.35 167.33 -27.7 167.66 -26 168 C-26.02320313 166.95199219 -26.04640625 165.90398437 -26.0703125 164.82421875 C-26.08907303 163.44531963 -26.10727293 162.0664128 -26.125 160.6875 C-26.14175781 159.99720703 -26.15851563 159.30691406 -26.17578125 158.59570312 C-26.21217794 154.82864604 -26.14378864 153.21568296 -24 150 C-22.700625 149.6596875 -22.700625 149.6596875 -21.375 149.3125 C-12.58457444 145.89400117 -5.50084935 135.46661834 0 128 C-0.72445312 127.21496094 -1.44890625 126.42992188 -2.1953125 125.62109375 C-3.17193739 124.55995325 -4.14849633 123.49875205 -5.125 122.4375 C-5.599375 121.92380859 -6.07375 121.41011719 -6.5625 120.88085938 C-7.27792969 120.10258789 -7.27792969 120.10258789 -8.0078125 119.30859375 C-8.76118896 118.51279907 -8.76118896 118.51279907 -9.52978516 117.70092773 C-11 116 -11 116 -12.20068359 114.05102539 C-13.65692146 111.8391924 -14.79083106 110.48278314 -17 109 C-21.818291 108.14048616 -26.5007548 108.34005451 -31.375 108.5625 C-32.68339844 108.59408203 -33.99179688 108.62566406 -35.33984375 108.65820312 C-38.56219246 108.7405259 -41.77993991 108.85548162 -45 109 C-44.88386353 107.84383179 -44.88386353 107.84383179 -44.76538086 106.66430664 C-44.43924371 103.13296464 -44.18795741 99.59998241 -43.9375 96.0625 C-43.81439453 94.85013672 -43.69128906 93.63777344 -43.56445312 92.38867188 C-43.09533857 85.439999 -43.09533857 85.439999 -45.85620117 79.24682617 C-48.13020442 76.95642781 -50.44391259 74.96686115 -53 73 C-54.48226805 71.73278541 -55.9619687 70.46255246 -57.4375 69.1875 C-58.07558594 68.66542969 -58.71367187 68.14335938 -59.37109375 67.60546875 C-61.13274057 65.86916937 -62.02515519 64.25830883 -63 62 C-57.53520749 57.06152972 -52.05529202 52.14464015 -46.49609375 47.3125 C-45.64347059 46.56450684 -44.80201622 45.80201622 -44 45 C-43.91241997 43.00035018 -43.89303424 40.9976389 -43.90234375 38.99609375 C-43.90556641 37.78115234 -43.90878906 36.56621094 -43.91210938 35.31445312 C-43.92048828 34.03505859 -43.92886719 32.75566406 -43.9375 31.4375 C-43.94426758 29.51260742 -43.94426758 29.51260742 -43.95117188 27.54882812 C-43.96300455 24.36583978 -43.97948932 21.18294238 -44 18 C-34.60853097 17.90091064 -25.34258296 17.87001156 -16 19 C-15.62101562 18.12794922 -15.62101562 18.12794922 -15.234375 17.23828125 C-13.85621935 14.73928382 -12.31416075 13.15165296 -10.25 11.1875 C-6.58895313 7.62666427 -3.26863807 3.92236569 0 0 Z M-1.625 23.5625 C-4.38921814 26.95900264 -4.43535798 29.64642017 -4 34 C-4.928125 33.938125 -5.85625 33.87625 -6.8125 33.8125 C-10.46485218 34.02734425 -10.63617394 34.5287273 -13 37 C-15 36.875 -15 36.875 -17 36 C-17.43957031 35.49082031 -17.87914062 34.98164062 -18.33203125 34.45703125 C-20.54054437 32.52781487 -21.8030291 32.68708822 -24.6875 32.8125 C-25.89986328 32.85310547 -25.89986328 32.85310547 -27.13671875 32.89453125 C-27.75160156 32.92933594 -28.36648437 32.96414062 -29 33 C-29.44759534 38.70684056 -28.60644032 40.69553898 -25 45 C-25.15000291 47.47504796 -25.91470454 48.84836363 -27.125 51 C-28.19223228 53.43938807 -27.87822019 54.54098346 -27 57 C-28.7634375 56.814375 -28.7634375 56.814375 -30.5625 56.625 C-35.27516245 56.57459719 -37.45827243 58.51333413 -40.75 61.6875 C-41.1625 62.120625 -41.575 62.55375 -42 63 C-41.195625 63.804375 -40.39125 64.60875 -39.5625 65.4375 C-38.375 66.625 -37.1875 67.8125 -36 69 C-33.32941149 69.14115161 -30.67567762 69.04247107 -28 69 C-28.061875 70.11375 -28.12375 71.2275 -28.1875 72.375 C-28.125625 73.57125 -28.06375 74.7675 -28 76 C-27.01 76.66 -26.02 77.32 -25 78 C-25.4187187 80.42856845 -25.64344786 81.68710731 -27.53125 83.34375 C-29.48048601 85.54182464 -29.31307966 86.79916776 -29.1875 89.6875 C-29.16042969 90.49574219 -29.13335937 91.30398437 -29.10546875 92.13671875 C-29.07066406 92.75160156 -29.03585938 93.36648437 -29 94 C-23.28662627 94.59236584 -23.28662627 94.59236584 -18.5 92 C-18.005 91.34 -17.51 90.68 -17 90 C-18.42431487 86.93224489 -19.90780074 84.78959901 -22 82 C-14.74 74.74 -7.48 67.48 0 60 C3.84353532 61.92176766 5.79333212 63.5599133 8.765625 66.5703125 C9.65507812 67.46621094 10.54453125 68.36210938 11.4609375 69.28515625 C12.38132813 70.22230469 13.30171875 71.15945312 14.25 72.125 C15.19484856 73.07988637 16.14015633 74.03431859 17.0859375 74.98828125 C19.39518338 77.32109087 21.69963203 79.65844086 24 82 C22.35 83.98 20.7 85.96 19 88 C20.15173355 90.46800047 21.04783565 92.04783565 23 94 C25.21072977 94.24253813 25.21072977 94.24253813 27.625 94.125 C28.44226563 94.10695313 29.25953125 94.08890625 30.1015625 94.0703125 C30.72804688 94.04710938 31.35453125 94.02390625 32 94 C32.62807517 88.34013839 32.62807517 88.34013839 30 83.6875 C29.01 82.8521875 29.01 82.8521875 28 82 C28 81.01 28 80.02 28 79 C28.99 78.34 29.98 77.68 31 77 C30.505 73.535 30.505 73.535 30 70 C31.19625 70.103125 32.3925 70.20625 33.625 70.3125 C37.11559679 70.34355513 38.83724368 69.7614318 41.5 67.5 C42.325 66.675 43.15 65.85 44 65 C42.1831165 60.9447513 42.1831165 60.9447513 39 58 C36.28184714 57.7470234 33.74088051 57.8652026 31 58 C31.061875 57.071875 31.12375 56.14375 31.1875 55.1875 C30.97265575 51.53514782 30.4712727 51.36382606 28 49 C28.125 47 28.125 47 29 45 C29.50917969 44.56042969 30.01835937 44.12085937 30.54296875 43.66796875 C32.47218513 41.45945563 32.31291178 40.1969709 32.1875 37.3125 C32.16042969 36.50425781 32.13335937 35.69601563 32.10546875 34.86328125 C32.05326172 33.94095703 32.05326172 33.94095703 32 33 C26.13551546 33.2555331 22.34242429 33.65757571 18 38 C17.278125 37.319375 16.55625 36.63875 15.8125 35.9375 C13.1794348 33.68262931 13.1794348 33.68262931 10.1875 34.25 C9.465625 34.4975 8.74375 34.745 8 35 C8.103125 33.80375 8.20625 32.6075 8.3125 31.375 C8.33077963 27.950616 7.79466275 26.1595866 5.625 23.5 C2.06333906 20.10794196 1.89907162 20.12233485 -1.625 23.5625 Z M-6.6875 82.25 C-7.6165918 83.12978516 -7.6165918 83.12978516 -8.56445312 84.02734375 C-9.14517578 84.60097656 -9.72589844 85.17460938 -10.32421875 85.765625 C-10.86135498 86.28930664 -11.39849121 86.81298828 -11.9519043 87.35253906 C-13.24786821 88.991405 -13.24786821 88.991405 -12.66723633 91.20214844 C-12.33695435 92.09208496 -12.33695435 92.09208496 -12 93 C-8.535 92.505 -8.535 92.505 -5 92 C-5.185625 93.7634375 -5.185625 93.7634375 -5.375 95.5625 C-5.42540281 100.27516245 -3.48666587 102.45827243 -0.3125 105.75 C0.120625 106.1625 0.55375 106.575 1 107 C1.804375 106.195625 2.60875 105.39125 3.4375 104.5625 C4.625 103.375 5.8125 102.1875 7 101 C7.07148199 99.64756083 7.08399454 98.29165633 7.0625 96.9375 C7.041875 95.638125 7.02125 94.33875 7 93 C9.31 93 11.62 93 14 93 C14.74863473 91.17017505 14.74863473 91.17017505 15 89 C13.98155117 87.26005054 13.98155117 87.26005054 12.32421875 85.765625 C11.74349609 85.19199219 11.16277344 84.61835937 10.56445312 84.02734375 C9.94505859 83.44082031 9.32566406 82.85429688 8.6875 82.25 C8.07970703 81.64800781 7.47191406 81.04601562 6.84570312 80.42578125 C0.55289182 74.30642119 -0.87549571 76.49346553 -6.6875 82.25 Z M-161 170 C-161 174.62 -161 179.24 -161 184 C-158.54137599 184.05383848 -156.0839245 184.09359038 -153.625 184.125 C-152.92632812 184.14175781 -152.22765625 184.15851563 -151.5078125 184.17578125 C-149.67102514 184.19344267 -147.83398037 184.10303261 -146 184 C-143.72783152 182.16262173 -143.72783152 182.16262173 -143.8046875 179.3984375 C-143.82789063 178.40070313 -143.85109375 177.40296875 -143.875 176.375 C-143.89304687 175.37210938 -143.91109375 174.36921875 -143.9296875 173.3359375 C-143.95289063 172.56507813 -143.97609375 171.79421875 -144 171 C-144.70125 171.66 -145.4025 172.32 -146.125 173 C-149 175 -149 175 -151.9375 175.5625 C-156.17079605 174.78495583 -157.90621202 172.94646474 -161 170 Z M95 178 C94.67 179.65 94.34 181.3 94 183 C94.66 182.67 95.32 182.34 96 182 C95.67 180.68 95.34 179.36 95 178 Z " fill="#3E3A71" transform="translate(226,0)"/>
<path d="M0 0 C2.6932571 0.08944396 4.46848637 0.51937227 6.48925781 2.34667969 C8.09155813 4.14888113 9.6181026 5.99231772 11.125 7.875 C12.16837337 9.14396761 13.21261587 10.41222121 14.2578125 11.6796875 C14.7130127 12.24413574 15.16821289 12.80858398 15.63720703 13.39013672 C16.08692871 13.9213916 16.53665039 14.45264648 17 15 C17.62878052 15.83615845 17.62878052 15.83615845 18.27026367 16.68920898 C20.91317267 18.69200058 23.14693846 18.33737188 26.41796875 18.29296875 C27.67158203 18.28330078 28.92519531 18.27363281 30.21679688 18.26367188 C31.52712891 18.23853516 32.83746094 18.21339844 34.1875 18.1875 C35.52277163 18.17244967 36.85805937 18.15876187 38.19335938 18.14648438 C41.46264576 18.11107694 44.73112093 18.0616889 48 18 C47.91733887 18.76554199 47.83467773 19.53108398 47.74951172 20.31982422 C45.43853477 35.01213085 45.43853477 35.01213085 48.87890625 48.7734375 C51.44666611 51.25887223 53.96459384 53.1235671 57 55 C58.56515269 56.26310568 60.10952532 57.55270073 61.625 58.875 C62.60339844 59.64457031 62.60339844 59.64457031 63.6015625 60.4296875 C65 62 65 62 65 66 C63.1722968 67.98444797 61.40789184 69.69055866 59.375 71.4375 C58.85292969 71.90220703 58.33085937 72.36691406 57.79296875 72.84570312 C57.27089844 73.30783203 56.74882812 73.76996094 56.2109375 74.24609375 C55.6854834 74.71813232 55.1600293 75.1901709 54.61865234 75.67651367 C53 77 53 77 49.625 78.953125 C47.27860161 80.89766895 47.0091119 81.94155799 46.52978516 85.01586914 C46.40808029 88.79924724 46.47800314 92.53015769 46.625 96.3125 C46.65207031 97.62541016 46.67914063 98.93832031 46.70703125 100.29101562 C46.7776784 103.52900979 46.87629434 106.76366958 47 110 C46.21874756 109.93304932 45.43749512 109.86609863 44.63256836 109.79711914 C41.06941052 109.5136411 37.50480012 109.28762977 33.9375 109.0625 C32.70837891 108.95615234 31.47925781 108.84980469 30.21289062 108.74023438 C23.67480698 108.22310037 23.67480698 108.22310037 17.69873047 110.41088867 C15.92144774 112.17658762 14.4559226 113.96497704 13 116 C11.95585937 117.13501953 11.95585937 117.13501953 10.890625 118.29296875 C10.34921875 118.91816406 9.8078125 119.54335937 9.25 120.1875 C8.69828125 120.82042969 8.1465625 121.45335938 7.578125 122.10546875 C5.98100384 124.0228048 4.47913651 125.99069107 3 128 C3.64066406 128.70125 4.28132813 129.4025 4.94140625 130.125 C6.73742394 132.09499854 8.53083615 134.0670557 10.3203125 136.04296875 C11.91338638 137.80092345 13.51074492 139.55503461 15.1171875 141.30078125 C18.48073807 145.01800989 21.03462538 148.37558912 23 153 C21.93283928 154.20205464 20.84561663 155.38632333 19.75 156.5625 C19.14671875 157.22378906 18.5434375 157.88507813 17.921875 158.56640625 C16 160 16 160 13.9921875 159.953125 C11.48154429 158.75195452 10.16541283 157.31312228 8.375 155.1875 C7.78460938 154.50042969 7.19421875 153.81335938 6.5859375 153.10546875 C5.10089421 151.13394577 4.01760794 149.24176008 3 147 C-1.23893042 150.35171242 -4.86503987 153.57417393 -8 158 C-8.42130907 160.75401951 -8.42130907 160.75401951 -8 163 C-8.44730469 162.61328125 -8.89460938 162.2265625 -9.35546875 161.828125 C-12.8521026 158.81609925 -16.37407463 155.85678969 -20 153 C-18.70176525 149.18437605 -17.25033142 146.92909121 -14.3125 144.1875 C-9.08053004 139.15529616 -4.30732636 133.84658113 0 128 C-0.72445312 127.21496094 -1.44890625 126.42992188 -2.1953125 125.62109375 C-3.17193739 124.55995325 -4.14849633 123.49875205 -5.125 122.4375 C-5.599375 121.92380859 -6.07375 121.41011719 -6.5625 120.88085938 C-7.27792969 120.10258789 -7.27792969 120.10258789 -8.0078125 119.30859375 C-8.51006348 118.77806396 -9.01231445 118.24753418 -9.52978516 117.70092773 C-11 116 -11 116 -12.20068359 114.05102539 C-13.65692146 111.8391924 -14.79083106 110.48278314 -17 109 C-21.818291 108.14048616 -26.5007548 108.34005451 -31.375 108.5625 C-33.33759766 108.60987305 -33.33759766 108.60987305 -35.33984375 108.65820312 C-38.56219246 108.7405259 -41.77993991 108.85548162 -45 109 C-44.92257568 108.22922119 -44.84515137 107.45844238 -44.76538086 106.66430664 C-44.43924371 103.13296464 -44.18795741 99.59998241 -43.9375 96.0625 C-43.7528418 94.24395508 -43.7528418 94.24395508 -43.56445312 92.38867188 C-43.09533857 85.439999 -43.09533857 85.439999 -45.85620117 79.24682617 C-48.13020442 76.95642781 -50.44391259 74.96686115 -53 73 C-54.48226805 71.73278541 -55.9619687 70.46255246 -57.4375 69.1875 C-58.07558594 68.66542969 -58.71367187 68.14335938 -59.37109375 67.60546875 C-61.13274057 65.86916937 -62.02515519 64.25830883 -63 62 C-57.53520749 57.06152972 -52.05529202 52.14464015 -46.49609375 47.3125 C-45.64347059 46.56450684 -44.80201622 45.80201622 -44 45 C-43.91241997 43.00035018 -43.89303424 40.9976389 -43.90234375 38.99609375 C-43.90556641 37.78115234 -43.90878906 36.56621094 -43.91210938 35.31445312 C-43.92048828 34.03505859 -43.92886719 32.75566406 -43.9375 31.4375 C-43.94426758 29.51260742 -43.94426758 29.51260742 -43.95117188 27.54882812 C-43.96300455 24.36583978 -43.97948932 21.18294238 -44 18 C-34.60853097 17.90091064 -25.34258296 17.87001156 -16 19 C-15.62101562 18.12794922 -15.62101562 18.12794922 -15.234375 17.23828125 C-13.85621935 14.73928382 -12.31416075 13.15165296 -10.25 11.1875 C-6.58895313 7.62666427 -3.26863807 3.92236569 0 0 Z M-1.625 23.5625 C-4.38921814 26.95900264 -4.43535798 29.64642017 -4 34 C-4.928125 33.938125 -5.85625 33.87625 -6.8125 33.8125 C-10.46485218 34.02734425 -10.63617394 34.5287273 -13 37 C-15 36.875 -15 36.875 -17 36 C-17.43957031 35.49082031 -17.87914062 34.98164062 -18.33203125 34.45703125 C-20.54054437 32.52781487 -21.8030291 32.68708822 -24.6875 32.8125 C-25.89986328 32.85310547 -25.89986328 32.85310547 -27.13671875 32.89453125 C-27.75160156 32.92933594 -28.36648437 32.96414062 -29 33 C-29.44759534 38.70684056 -28.60644032 40.69553898 -25 45 C-25.15000291 47.47504796 -25.91470454 48.84836363 -27.125 51 C-28.19223228 53.43938807 -27.87822019 54.54098346 -27 57 C-28.7634375 56.814375 -28.7634375 56.814375 -30.5625 56.625 C-35.27516245 56.57459719 -37.45827243 58.51333413 -40.75 61.6875 C-41.1625 62.120625 -41.575 62.55375 -42 63 C-41.195625 63.804375 -40.39125 64.60875 -39.5625 65.4375 C-38.375 66.625 -37.1875 67.8125 -36 69 C-33.32941149 69.14115161 -30.67567762 69.04247107 -28 69 C-28.061875 70.11375 -28.12375 71.2275 -28.1875 72.375 C-28.125625 73.57125 -28.06375 74.7675 -28 76 C-27.01 76.66 -26.02 77.32 -25 78 C-25.4187187 80.42856845 -25.64344786 81.68710731 -27.53125 83.34375 C-29.48048601 85.54182464 -29.31307966 86.79916776 -29.1875 89.6875 C-29.16042969 90.49574219 -29.13335937 91.30398437 -29.10546875 92.13671875 C-29.07066406 92.75160156 -29.03585938 93.36648437 -29 94 C-23.28662627 94.59236584 -23.28662627 94.59236584 -18.5 92 C-18.005 91.34 -17.51 90.68 -17 90 C-18.42431487 86.93224489 -19.90780074 84.78959901 -22 82 C-14.74 74.74 -7.48 67.48 0 60 C3.84353532 61.92176766 5.79333212 63.5599133 8.765625 66.5703125 C9.65507812 67.46621094 10.54453125 68.36210938 11.4609375 69.28515625 C12.38132813 70.22230469 13.30171875 71.15945312 14.25 72.125 C15.19484856 73.07988637 16.14015633 74.03431859 17.0859375 74.98828125 C19.39518338 77.32109087 21.69963203 79.65844086 24 82 C22.35 83.98 20.7 85.96 19 88 C20.15173355 90.46800047 21.04783565 92.04783565 23 94 C25.21072977 94.24253813 25.21072977 94.24253813 27.625 94.125 C28.44226563 94.10695313 29.25953125 94.08890625 30.1015625 94.0703125 C30.72804688 94.04710938 31.35453125 94.02390625 32 94 C32.62807517 88.34013839 32.62807517 88.34013839 30 83.6875 C29.01 82.8521875 29.01 82.8521875 28 82 C28 81.01 28 80.02 28 79 C28.99 78.34 29.98 77.68 31 77 C30.505 73.535 30.505 73.535 30 70 C31.19625 70.103125 32.3925 70.20625 33.625 70.3125 C37.11559679 70.34355513 38.83724368 69.7614318 41.5 67.5 C42.325 66.675 43.15 65.85 44 65 C42.1831165 60.9447513 42.1831165 60.9447513 39 58 C36.28184714 57.7470234 33.74088051 57.8652026 31 58 C31.061875 57.071875 31.12375 56.14375 31.1875 55.1875 C30.97265575 51.53514782 30.4712727 51.36382606 28 49 C28.125 47 28.125 47 29 45 C29.50917969 44.56042969 30.01835937 44.12085937 30.54296875 43.66796875 C32.47218513 41.45945563 32.31291178 40.1969709 32.1875 37.3125 C32.16042969 36.50425781 32.13335937 35.69601563 32.10546875 34.86328125 C32.05326172 33.94095703 32.05326172 33.94095703 32 33 C26.13551546 33.2555331 22.34242429 33.65757571 18 38 C17.278125 37.319375 16.55625 36.63875 15.8125 35.9375 C13.1794348 33.68262931 13.1794348 33.68262931 10.1875 34.25 C9.465625 34.4975 8.74375 34.745 8 35 C8.103125 33.80375 8.20625 32.6075 8.3125 31.375 C8.33077963 27.950616 7.79466275 26.1595866 5.625 23.5 C2.06333906 20.10794196 1.89907162 20.12233485 -1.625 23.5625 Z M-6.6875 82.25 C-7.6165918 83.12978516 -7.6165918 83.12978516 -8.56445312 84.02734375 C-9.14517578 84.60097656 -9.72589844 85.17460938 -10.32421875 85.765625 C-10.86135498 86.28930664 -11.39849121 86.81298828 -11.9519043 87.35253906 C-13.24786821 88.991405 -13.24786821 88.991405 -12.66723633 91.20214844 C-12.33695435 92.09208496 -12.33695435 92.09208496 -12 93 C-8.535 92.505 -8.535 92.505 -5 92 C-5.185625 93.7634375 -5.185625 93.7634375 -5.375 95.5625 C-5.42540281 100.27516245 -3.48666587 102.45827243 -0.3125 105.75 C0.120625 106.1625 0.55375 106.575 1 107 C1.804375 106.195625 2.60875 105.39125 3.4375 104.5625 C4.625 103.375 5.8125 102.1875 7 101 C7.07148199 99.64756083 7.08399454 98.29165633 7.0625 96.9375 C7.041875 95.638125 7.02125 94.33875 7 93 C9.31 93 11.62 93 14 93 C14.74863473 91.17017505 14.74863473 91.17017505 15 89 C13.98155117 87.26005054 13.98155117 87.26005054 12.32421875 85.765625 C11.74349609 85.19199219 11.16277344 84.61835937 10.56445312 84.02734375 C9.94505859 83.44082031 9.32566406 82.85429688 8.6875 82.25 C8.07970703 81.64800781 7.47191406 81.04601562 6.84570312 80.42578125 C0.55289182 74.30642119 -0.87549571 76.49346553 -6.6875 82.25 Z " fill="#F79B2E" transform="translate(226,0)"/>
<path d="M0 0 C1.12588014 0.95729916 2.2506715 1.91587895 3.375 2.875 C4.00148437 3.40867188 4.62796875 3.94234375 5.2734375 4.4921875 C8.96240401 7.71377364 8.96240401 7.71377364 9.30297852 10.30664062 C9.32803467 11.24701172 9.35309082 12.18738281 9.37890625 13.15625 C9.43014648 14.68958984 9.43014648 14.68958984 9.48242188 16.25390625 C9.50884766 17.32511719 9.53527344 18.39632812 9.5625 19.5 C9.62230199 21.61470024 9.68591313 23.72929728 9.75390625 25.84375 C9.77783447 26.78412109 9.8017627 27.72449219 9.82641602 28.69335938 C9.85555346 31.02680123 9.85555346 31.02680123 11 33 C14.4372166 33.11604679 17.87393086 33.18719508 21.3125 33.25 C22.28896484 33.28351563 23.26542969 33.31703125 24.27148438 33.3515625 C25.20927734 33.36445313 26.14707031 33.37734375 27.11328125 33.390625 C27.97735596 33.41157227 28.84143066 33.43251953 29.73168945 33.45410156 C32.12972304 33.18642195 32.12972304 33.18642195 33.79101562 31.26953125 C35.1713253 28.6783845 35.31969086 27.21127019 35.23046875 24.296875 C35.22466797 23.40186279 35.21886719 22.50685059 35.21289062 21.5847168 C35.20451172 20.64926025 35.19613281 19.71380371 35.1875 18.75 C35.35193673 7.23649265 35.35193673 7.23649265 40 2.6875 C43.50815851 0 43.50815851 0 45 0 C45.04898438 0.90363281 45.09796875 1.80726563 45.1484375 2.73828125 C45.22320312 3.91777344 45.29796875 5.09726563 45.375 6.3125 C45.47941406 8.07013672 45.47941406 8.07013672 45.5859375 9.86328125 C45.78613747 13.15699887 45.78613747 13.15699887 48 16 C50.20725073 16.36362818 50.20725073 16.36362818 52.625 16.1875 C53.44226563 16.16042969 54.25953125 16.13335937 55.1015625 16.10546875 C56.04128906 16.05326172 56.04128906 16.05326172 57 16 C56.979375 15.43152344 56.95875 14.86304688 56.9375 14.27734375 C57.04119836 10.39513649 57.25455839 7.88681847 59.8125 4.84375 C65.37090164 0 65.37090164 0 67 0 C67.06058594 0.90363281 67.12117188 1.80726563 67.18359375 2.73828125 C67.26738281 3.91777344 67.35117187 5.09726563 67.4375 6.3125 C67.51871094 7.48425781 67.59992188 8.65601563 67.68359375 9.86328125 C67.8867371 13.02590958 67.8867371 13.02590958 69 16 C72.18976259 16.63022523 72.18976259 16.63022523 76 16 C79.52963228 13.27689768 82.27706514 9.73451417 85.13085938 6.33203125 C89.71762333 1.26778083 89.71762333 1.26778083 93.59204102 0.45874023 C98.10731103 0.3637728 100.40424203 0.62905636 104.3125 3.0625 C105.199375 4.031875 106.08625 5.00125 107 6 C107.72896484 6.76183594 107.72896484 6.76183594 108.47265625 7.5390625 C111.99157277 11.67550477 112.71643447 15.24891993 112.421875 20.6328125 C111.5982832 25.2540776 109.28450469 27.89899598 105.8125 30.875 C101.80291886 32.47883245 98.25899911 32.68475074 94 32 C90.02033605 29.89753603 87.05240393 27.28720424 84 24 C83.38125 24.309375 82.7625 24.61875 82.125 24.9375 C77.5986798 27.2006601 74.0728201 27.54698234 69 27 C67.32665961 26.01120795 65.65848177 25.01351664 64 24 C61.2995961 24.64663567 61.2995961 24.64663567 59 26 C56.51245214 27.24377393 54.77344699 27.13306235 52 27.125 C51.113125 27.12757813 50.22625 27.13015625 49.3125 27.1328125 C47 27 47 27 45 26 C44.95875 27.010625 44.9175 28.02125 44.875 29.0625 C44.1927382 33.79989534 41.59205532 36.95767222 38 40 C32.54592471 43.61353595 27.3888403 43.516859 21.0625 43.5 C19.61713867 43.54253906 19.61713867 43.54253906 18.14257812 43.5859375 C12.60558493 43.60107624 8.89029361 43.0348852 4.43530273 39.66210938 C0.3301971 34.90831465 -0.36666905 30.55575416 -0.29296875 24.4140625 C-0.28872391 23.71227875 -0.28447906 23.010495 -0.28010559 22.28744507 C-0.26343599 20.0662244 -0.22580872 17.84594212 -0.1875 15.625 C-0.17243788 14.11069027 -0.15875216 12.59636619 -0.14648438 11.08203125 C-0.11357183 7.38772068 -0.06187259 3.69395207 0 0 Z " fill="#FAFAFB" transform="translate(205,155)"/>
<path d="M0 0 C0.04898438 0.89203125 0.09796875 1.7840625 0.1484375 2.703125 C0.22320312 3.87359375 0.29796875 5.0440625 0.375 6.25 C0.44460937 7.41015625 0.51421875 8.5703125 0.5859375 9.765625 C0.96248308 12.70694334 1.4774123 14.49949011 3 17 C8.16895183 17.67071958 8.16895183 17.67071958 12.83056641 15.81347656 C14.59358004 14.15698789 16.21146 12.4383643 17.8125 10.625 C18.92130515 9.42795084 20.03191599 8.23257112 21.14453125 7.0390625 C21.62253174 6.50490723 22.10053223 5.97075195 22.59301758 5.42041016 C25.28169151 2.70607649 27.45768458 1.64214474 31.1875 1.4375 C36.21965512 1.5516818 38.5834665 3.55467796 42.08984375 6.984375 C42.72019531 7.64953125 43.35054688 8.3146875 44 9 C49.17973076 14.70530821 49.17973076 14.70530821 56 18 C55.94199219 17.34773438 55.88398438 16.69546875 55.82421875 16.0234375 C55.40960912 7.99185668 55.40960912 7.99185668 58.25 4.5 C62.28304045 0.83359959 64.79538015 -0.26854263 70.25 -0.125 C71.14203125 -0.10695312 72.0340625 -0.08890625 72.953125 -0.0703125 C73.96632812 -0.03550781 73.96632812 -0.03550781 75 0 C75 2.64 75 5.28 75 8 C74.43410156 8.13277344 73.86820312 8.26554688 73.28515625 8.40234375 C72.18494141 8.66724609 72.18494141 8.66724609 71.0625 8.9375 C70.33160156 9.11152344 69.60070312 9.28554687 68.84765625 9.46484375 C67.00030102 9.83887569 67.00030102 9.83887569 66 11 C65.66656449 13.45792029 65.66656449 13.45792029 66 16 C69.60178588 18.40119059 72.50866369 18.43771322 76.6875 18.625 C77.38939453 18.66367188 78.09128906 18.70234375 78.81445312 18.7421875 C80.54254655 18.8362334 82.27123675 18.9191968 84 19 C84 21.64 84 24.28 84 27 C79.23113513 27.04950115 74.46242041 27.08576738 69.69335938 27.10986328 C68.07158808 27.11991023 66.44983484 27.13355015 64.828125 27.15087891 C62.49474626 27.17518493 60.1616074 27.18649613 57.828125 27.1953125 C56.74352997 27.21079636 56.74352997 27.21079636 55.63702393 27.22659302 C51.92201961 27.22741782 49.15418955 27.06235471 46 25 C45.79375 25.5775 45.5875 26.155 45.375 26.75 C43.37989816 30.01471209 41.40971278 31.26414622 38 33 C33.84116154 33.9071034 30.49594657 33.85185846 26.75 31.71875 C24.75268747 30.2207656 22.87964897 28.6415034 21 27 C20.01 26.34 19.02 25.68 18 25 C17.01 25.66 16.02 26.32 15 27 C12.39754502 27.14221065 9.90882316 27.18802932 7.3125 27.125 C6.61060547 27.11597656 5.90871094 27.10695312 5.18554688 27.09765625 C3.45688475 27.07413704 1.72839855 27.03826713 0 27 C0.05220703 28.38832031 0.05220703 28.38832031 0.10546875 29.8046875 C-0.03295641 33.99845702 -1.39372898 35.75977116 -4 39 C-9.06282041 43.46010369 -12.01590553 44.14176036 -18.625 44.0625 C-19.33140625 44.05798828 -20.0378125 44.05347656 -20.765625 44.04882812 C-22.51045275 44.03703875 -24.255237 44.01910324 -26 44 C-24.19644985 40.18167311 -22.29683567 37.72347294 -19 35 C-16.9296875 34.34375 -16.9296875 34.34375 -14.75 33.875 C-13.5125 33.58625 -12.275 33.2975 -11 33 C-10.01623786 30.04871359 -9.91370738 28.24194101 -9.96484375 25.17578125 C-9.95427413 9.70450261 -9.95427413 9.70450261 -7.19140625 4.76953125 C-2.31762295 0 -2.31762295 0 0 0 Z " fill="#FAFAFB" transform="translate(118,154)"/>
<path d="M0 0 C0.04898437 1.05960938 0.09796875 2.11921875 0.1484375 3.2109375 C0.22346709 4.59898497 0.29901485 5.98700451 0.375 7.375 C0.4059375 8.07367188 0.436875 8.77234375 0.46875 9.4921875 C0.59499498 13.70185827 0.59499498 13.70185827 3 17 C5.65817965 17.26730298 8.22977337 17.41912733 10.89453125 17.4921875 C12.50588043 17.55808099 14.11720802 17.624504 15.72851562 17.69140625 C18.2694573 17.78610582 20.81031665 17.87493241 23.35180664 17.95361328 C25.80448887 18.03330935 28.25535776 18.13633685 30.70703125 18.2421875 C31.84009453 18.26742996 31.84009453 18.26742996 32.99604797 18.29318237 C36.6079862 18.46157763 38.89109861 18.93515069 42.01831055 20.79736328 C44 23 44 23 44 27 C29.15 27 14.3 27 -1 27 C-1.33 29.97 -1.66 32.94 -2 36 C-4.55956207 40.36073537 -7.37775273 42.09608718 -12 44 C-14.7188776 44.20597558 -17.17641622 44.28948136 -19.875 44.1875 C-20.56335938 44.17396484 -21.25171875 44.16042969 -21.9609375 44.14648438 C-23.64097001 44.1114837 -25.3205935 44.05768954 -27 44 C-23.01256124 38.99857338 -19.60468365 35.20334395 -13.3671875 33.12109375 C-10.79930719 31.26714832 -10.79930719 31.26714832 -10.63208008 28.72998047 C-10.54845133 24.72215227 -10.6493876 20.73716543 -10.81445312 16.73242188 C-10.8336006 10.80053511 -10.31867807 7.60358823 -6.08203125 3.26171875 C-2.42442671 0 -2.42442671 0 0 0 Z " fill="#F8F8FA" transform="translate(356,154)"/>
<path d="M0 0 C0.12456859 4.26829471 0.2147864 8.53559796 0.2746582 12.80517578 C0.29964236 14.25425674 0.33364269 15.70321375 0.37719727 17.15185547 C0.81469384 32.08850307 0.81469384 32.08850307 -3.48022461 37.51733398 C-8.95410492 42.85755489 -13.45321676 43.49342009 -20.90234375 43.49804688 C-21.96582031 43.47806641 -23.02929688 43.45808594 -24.125 43.4375 C-25.19621094 43.44458984 -26.26742187 43.45167969 -27.37109375 43.45898438 C-32.90786825 43.41416615 -36.37386118 43.29856556 -41 40 C-45.77128534 34.45499271 -45.99566912 27.91555732 -45.66796875 20.84765625 C-44.77247604 15.68940879 -42.81782934 13.43645999 -38.84765625 10.1875 C-37 9 -37 9 -36 9 C-35.98018066 9.68626465 -35.96036133 10.3725293 -35.93994141 11.07958984 C-35.84489055 14.17845779 -35.73513153 17.27663294 -35.625 20.375 C-35.5940625 21.45523438 -35.563125 22.53546875 -35.53125 23.6484375 C-35.49257813 24.6796875 -35.45390625 25.7109375 -35.4140625 26.7734375 C-35.3826416 27.72653809 -35.3512207 28.67963867 -35.31884766 29.66162109 C-35.21444204 32.18895176 -35.21444204 32.18895176 -33 34 C-31.01551471 34.29315085 -31.01551471 34.29315085 -28.75390625 34.23046875 C-27.91666016 34.22853516 -27.07941406 34.22660156 -26.21679688 34.22460938 C-24.90291992 34.20624023 -24.90291992 34.20624023 -23.5625 34.1875 C-22.69044922 34.18685547 -21.81839844 34.18621094 -20.91992188 34.18554688 C-15.88096942 34.15673777 -15.88096942 34.15673777 -11 33 C-9.88076373 30.11159689 -9.91070191 27.36430066 -9.96484375 24.296875 C-9.95430857 9.66746357 -9.95430857 9.66746357 -7.19140625 4.83984375 C-2.26372505 0 -2.26372505 0 0 0 Z " fill="#FCFCFD" transform="translate(96,154)"/>
<path d="M0 0 C3.76603869 1.56282982 6.13639151 3.9063475 8.984375 6.7890625 C9.44483215 7.25234955 9.90528931 7.7156366 10.37969971 8.19296265 C11.84125078 9.66565898 13.29567168 11.14517403 14.75 12.625 C15.74302611 13.62806322 16.73651089 14.63067257 17.73046875 15.6328125 C20.15897941 18.08330835 22.58114675 20.5399667 25 23 C24.07038578 24.15224028 23.1309875 25.29659176 22.1875 26.4375 C21.66542969 27.07558594 21.14335937 27.71367188 20.60546875 28.37109375 C19 30 19 30 16 31 C16 30.34 16 29.68 16 29 C15.17242187 28.90912109 15.17242187 28.90912109 14.328125 28.81640625 C10.96987598 27.63876523 9.20085251 25.48509669 6.75 22.9375 C5.85796875 22.01839844 4.9659375 21.09929687 4.046875 20.15234375 C3.37140625 19.44207031 2.6959375 18.73179688 2 18 C-2.93582902 19.99946777 -5.98329948 23.9822557 -9.5625 27.78515625 C-13.1389278 31.03489112 -13.1389278 31.03489112 -16 31 C-17.921875 29.56640625 -17.921875 29.56640625 -19.75 27.5625 C-20.36359375 26.90378906 -20.9771875 26.24507812 -21.609375 25.56640625 C-22.06828125 25.04949219 -22.5271875 24.53257813 -23 24 C-18.32533663 18.37696243 -13.32234333 13.20258446 -8.125 8.0625 C-7.34125 7.28326172 -6.5575 6.50402344 -5.75 5.70117188 C-3.83561419 3.79845915 -1.91891966 1.89813829 0 0 Z " fill="#2D2D5B" transform="translate(226,59)"/>
<path d="M0 0 C0.1491107 4.71380981 0.25756634 9.42622683 0.32958984 14.1418457 C0.35963274 15.74332613 0.40048117 17.34464379 0.45263672 18.94555664 C0.92951841 33.96732984 0.92951841 33.96732984 -2.7109375 38.46484375 C-7.71830546 42.84803473 -12.31354027 43.28669661 -18.8125 43.125 C-19.85180664 43.11146484 -19.85180664 43.11146484 -20.91210938 43.09765625 C-22.60822395 43.07426157 -24.30415871 43.03839641 -26 43 C-25.04270084 41.87411986 -24.08412105 40.7493285 -23.125 39.625 C-22.59132813 38.99851563 -22.05765625 38.37203125 -21.5078125 37.7265625 C-19.07287834 34.93837365 -18.22129878 34.05927646 -14.5 33.0625 C-10.76314255 32.3326766 -10.76314255 32.3326766 -9 29 C-8.74647351 26.69410175 -8.74647351 26.69410175 -8.83203125 24.140625 C-8.82494141 23.18929687 -8.81785156 22.23796875 -8.81054688 21.2578125 C-8.81183888 19.26812051 -8.83236906 17.27833905 -8.87304688 15.2890625 C-8.79637123 9.87065023 -8.40814084 6.7500266 -4.51171875 2.796875 C-1.29350382 0 -1.29350382 0 0 0 Z " fill="#FCFCFD" transform="translate(335,154)"/>
<path d="M0 0 C3.19119001 1.38053655 5.03343562 2.89939474 7.25 5.5625 C7.84425781 6.26503906 8.43851563 6.96757812 9.05078125 7.69140625 C10.01564453 8.83416016 10.01564453 8.83416016 11 10 C12.47452034 11.67077874 13.95361962 13.3375287 15.4375 15 C16.45650391 16.1446875 16.45650391 16.1446875 17.49609375 17.3125 C17.99238281 17.869375 18.48867187 18.42625 19 19 C17.84826645 21.46800047 16.95216435 23.04783565 15 25 C12 25 12 25 10.28125 23.390625 C9.6934375 22.68421875 9.105625 21.9778125 8.5 21.25 C7.9121875 20.55390625 7.324375 19.8578125 6.71875 19.140625 C5.10014974 17.12473195 3.53603811 15.0792711 2 13 C-1.88397689 14.55002747 -4.02979619 17.00476621 -6.75 20.125 C-7.54921875 21.03507812 -8.3484375 21.94515625 -9.171875 22.8828125 C-9.77515625 23.58148438 -10.3784375 24.28015625 -11 25 C-13.49361571 23.79618552 -15.68143083 22.54571278 -18 21 C-16.63903054 17.98346097 -15.08428716 15.79694048 -12.8125 13.3984375 C-12.19632813 12.74359375 -11.58015625 12.08875 -10.9453125 11.4140625 C-10.30335938 10.74117187 -9.66140625 10.06828125 -9 9.375 C-8.35804688 8.694375 -7.71609375 8.01375 -7.0546875 7.3125 C-4.72747637 4.84896688 -2.39641406 2.39641406 0 0 Z " fill="#F79827" transform="translate(227,132)"/>
<path d="M0 0 C0 13.2 0 26.4 0 40 C-2.97 40 -5.94 40 -9 40 C-9.19922632 35.58943576 -9.34358566 31.18131614 -9.43945312 26.76757812 C-9.47944767 25.26971784 -9.53386764 23.77216521 -9.60351562 22.27539062 C-10.16701681 9.84521737 -10.16701681 9.84521737 -7.21875 5.18359375 C-2.09915123 0 -2.09915123 0 0 0 Z " fill="#F6F6F9" transform="translate(107,142)"/>
<path d="M0 0 C3.89252812 1.55701125 6.06142977 4.01434106 8.8125 7.125 C9.68648437 8.11113281 10.56046875 9.09726563 11.4609375 10.11328125 C12.29882812 11.06589844 13.13671875 12.01851562 14 13 C14.69351563 13.75667969 15.38703125 14.51335937 16.1015625 15.29296875 C19.47835009 19.0074351 22.03229224 22.3700994 24 27 C22.93283928 28.20205464 21.84561663 29.38632333 20.75 30.5625 C20.14671875 31.22378906 19.5434375 31.88507813 18.921875 32.56640625 C17 34 17 34 14.9921875 33.953125 C12.48154429 32.75195452 11.16541283 31.31312228 9.375 29.1875 C8.78460938 28.50042969 8.19421875 27.81335938 7.5859375 27.10546875 C6.10089421 25.13394577 5.01760794 23.24176008 4 21 C-0.23893042 24.35171242 -3.86503987 27.57417393 -7 32 C-7.42130907 34.75401951 -7.42130907 34.75401951 -7 37 C-7.44730469 36.61328125 -7.89460937 36.2265625 -8.35546875 35.828125 C-11.8521026 32.81609925 -15.37407463 29.85678969 -19 27 C-17.70176525 23.18437605 -16.25033142 20.92909121 -13.3125 18.1875 C-8.08053004 13.15529616 -3.30732636 7.84658113 1 2 C0.67 1.34 0.34 0.68 0 0 Z M-0.35546875 8.125 C-1.30548838 9.07737658 -2.24914597 10.03612752 -3.1875 11 C-3.67710205 11.49749756 -4.1667041 11.99499512 -4.67114258 12.50756836 C-12.13128132 18.94660325 -12.13128132 18.94660325 -16 27 C-14.37373596 28.38232443 -12.7074998 29.71937515 -11 31 C-7.11742752 29.45760819 -5.05494219 27.02101909 -2.375 23.875 C-0.95831173 22.21356825 0.49142597 20.57846935 2 19 C4 19 4 19 5.62109375 20.609375 C6.52021484 21.66898438 6.52021484 21.66898438 7.4375 22.75 C8.03433594 23.44609375 8.63117188 24.1421875 9.24609375 24.859375 C10.89081098 26.86673589 12.46126108 28.91070312 14 31 C17.26954202 30.43628586 18.82575883 29.50037734 21 27 C19.30935414 22.71563036 16.18644695 19.77624401 13.0625 16.5 C11.98914493 15.36622854 10.91748211 14.23085221 9.84765625 13.09375 C9.34766113 12.56265625 8.84766602 12.0315625 8.33251953 11.484375 C7 10 7 10 5.24609375 7.59375 C4.83488281 7.0678125 4.42367187 6.541875 4 6 C1.71877282 5.77671712 1.71877282 5.77671712 -0.35546875 8.125 Z " fill="#FEF8F3" transform="translate(225,126)"/>
<path d="M0 0 C0.639375 0.309375 1.27875 0.61875 1.9375 0.9375 C2.68 1.288125 3.4225 1.63875 4.1875 2 C4.765 2.309375 5.3425 2.61875 5.9375 2.9375 C6.35 2.421875 6.7625 1.90625 7.1875 1.375 C8.9375 -0.0625 8.9375 -0.0625 10.9375 0.0625 C13.24115256 1.07034799 14.48543194 1.87403486 15.9375 3.9375 C15.9375 5.875 15.9375 5.875 14.9375 7.9375 C12.375 10.1875 12.375 10.1875 9.9375 11.9375 C8.6175 10.6175 7.2975 9.2975 5.9375 7.9375 C3.44388429 9.14131448 1.25606917 10.39178722 -1.0625 11.9375 C-3.0425 9.6275 -5.0225 7.3175 -7.0625 4.9375 C-2.65645248 -0.08049856 -2.65645248 -0.08049856 0 0 Z " fill="#F3F3F6" transform="translate(262.0625,188.0625)"/>
<path d="M0 0 C3.37591285 1.12530428 4.28446799 2.16053617 6.5625 4.8125 C7.46162109 5.84310547 7.46162109 5.84310547 8.37890625 6.89453125 C9.89648749 8.86555845 10.97902958 10.73964261 12 13 C12.763125 12.525625 13.52625 12.05125 14.3125 11.5625 C17 10 17 10 20 9 C18.7251791 11.84383123 17.54862922 14.13754018 15 16 C11.26716951 15.62671695 9.73188598 13.98565318 7.375 11.1875 C6.78460938 10.50042969 6.19421875 9.81335938 5.5859375 9.10546875 C4.10089421 7.13394577 3.01760794 5.24176008 2 3 C-2.23893042 6.35171242 -5.86503987 9.57417393 -9 14 C-9.42130907 16.75401951 -9.42130907 16.75401951 -9 19 C-9.44730469 18.61328125 -9.89460937 18.2265625 -10.35546875 17.828125 C-10.96003906 17.30734375 -11.56460938 16.7865625 -12.1875 16.25 C-12.82171875 15.7034375 -13.4559375 15.156875 -14.109375 14.59375 C-15.68220486 13.26789342 -17.30440766 12.00087924 -18.9375 10.75 C-19.618125 10.1725 -20.29875 9.595 -21 9 C-21 8.34 -21 7.68 -21 7 C-17.62496331 8.1858237 -15.35277269 9.27573689 -13 12 C-9.11602311 10.44997253 -6.97020381 7.99523379 -4.25 4.875 C-3.45078125 3.96492187 -2.6515625 3.05484375 -1.828125 2.1171875 C-1.22484375 1.41851562 -0.6215625 0.71984375 0 0 Z " fill="#F3EDEB" transform="translate(227,144)"/>
<path d="M0 0 C3.80864206 1.49625224 5.86359354 3.51844874 8 7 C7.69387755 12.30612245 7.69387755 12.30612245 6 14 C3.3125 14.4375 3.3125 14.4375 0 14 C-2.3322363 12.19422788 -4.04131963 10.23849185 -6 8 C-4.55746343 4.63408134 -2.66735273 2.48952921 0 0 Z " fill="#3B386F" transform="translate(149,164)"/>
<path d="M0 0 C6.85082873 5.13812155 6.85082873 5.13812155 7.5625 9.25 C7 12 7 12 5 14 C1.5935135 14 -0.95154 13.94152751 -3.5703125 11.58984375 C-4.78785994 10.1183507 -5.90251403 8.56308608 -7 7 C-4.69 4.69 -2.38 2.38 0 0 Z " fill="#39366E" transform="translate(301,164)"/>
<path d="M0 0 C2.6755118 1.55352298 4.1495043 3.63457742 5.9375 6.125 C3.6275 8.105 1.3175 10.085 -1.0625 12.125 C-3.0425 9.815 -5.0225 7.505 -7.0625 5.125 C-2.7065281 0.16403201 -2.7065281 0.16403201 0 0 Z " fill="#F6F6F8" transform="translate(228.0625,159.875)"/>
<path d="M0 0 C2.88437779 1.29299694 4.87219421 2.65941363 7 5 C5.70700306 7.88437779 4.34058637 9.87219421 2 12 C-0.88437779 10.70700306 -2.87219421 9.34058637 -5 7 C-3.70700306 4.11562221 -2.34058637 2.12780579 0 0 Z " fill="#F2F2F6" transform="translate(325,142)"/>
<path d="M0 0 C2.86314093 1.38818954 4.23065505 3.44850168 6.0625 6 C3.7525 7.98 1.4425 9.96 -0.9375 12 C-3.5 9.75 -3.5 9.75 -5.9375 7 C-5.9375 4.34076754 -5.1681065 3.31845659 -3.625 1.1875 C-1.9375 0 -1.9375 0 0 0 Z " fill="#F5F5F8" transform="translate(73.9375,160)"/>
<path d="M0 0 C1.9375 0.8125 1.9375 0.8125 3.9375 2.8125 C3.875 4.6875 3.875 4.6875 2.9375 6.8125 C0.375 9.0625 0.375 9.0625 -2.0625 10.8125 C-4.125 9.0625 -4.125 9.0625 -6.0625 6.8125 C-5.98416804 4.22754527 -5.25644053 3.08032263 -3.75 1 C-2.0625 -0.1875 -2.0625 -0.1875 0 0 Z " fill="#FAFAFB" transform="translate(274.0625,189.1875)"/>
<path d="M0 0 C3.44756956 1.21130822 5.49405626 2.38510218 8 5 C10.09989652 6.17574711 10.09989652 6.17574711 12 7 C12 8.65 12 10.3 12 12 C11.55269531 11.61328125 11.10539063 11.2265625 10.64453125 10.828125 C10.03996094 10.30734375 9.43539062 9.7865625 8.8125 9.25 C8.17828125 8.7034375 7.5440625 8.156875 6.890625 7.59375 C5.31779514 6.26789342 3.69559234 5.00087924 2.0625 3.75 C1.381875 3.1725 0.70125 2.595 0 2 C0 1.34 0 0.68 0 0 Z " fill="#ECE6E6" transform="translate(206,151)"/>
<path d="M0 0 C0.66 0.33 1.32 0.66 2 1 C-1.63 4.63 -5.26 8.26 -9 12 C-9 9 -9 9 -6.75 6.5625 C-5.8425 5.716875 -4.935 4.87125 -4 4 C-3.236875 3.236875 -2.47375 2.47375 -1.6875 1.6875 C-1.130625 1.130625 -0.57375 0.57375 0 0 Z " fill="#605D8A" transform="translate(104,137)"/>
<path d="M0 0 C0.66 0.33 1.32 0.66 2 1 C-1.66666667 4.66666667 -5.33333333 8.33333333 -9 12 C-9 8 -9 8 -7.28515625 6.11328125 C-6.55167969 5.51902344 -5.81820312 4.92476562 -5.0625 4.3125 C-4.33160156 3.71050781 -3.60070312 3.10851563 -2.84765625 2.48828125 C-2.23792969 1.99714844 -1.62820312 1.50601563 -1 1 C-0.67 0.67 -0.34 0.34 0 0 Z " fill="#FABD74" transform="translate(173,53)"/>
<path d="M0 0 C0.99 0.33 1.98 0.66 3 1 C-0.465 3.97 -0.465 3.97 -4 7 C-4.66 6.34 -5.32 5.68 -6 5 C-1.60546875 0.99609375 -1.60546875 0.99609375 0 0 Z " fill="#545181" transform="translate(333,190)"/>
</svg>
